<?xml version="1.0" standalone="no"?>
<!DOCTYPE svg PUBLIC "-//W3C//DTD SVG 20010904//EN"
 "http://www.w3.org/TR/2001/REC-SVG-20010904/DTD/svg10.dtd">
<svg version="1.0" xmlns="http://www.w3.org/2000/svg"
 width="496.000000pt" height="496.000000pt" viewBox="0 0 496.000000 496.000000"
 preserveAspectRatio="xMidYMid meet">
<metadata>
Created by potrace 1.14, written by Peter Selinger 2001-2017
</metadata>
<g transform="translate(0.000000,496.000000) scale(0.100000,-0.100000)"
fill="#000000" stroke="none">
<path d="M2534 4381 c-18 -11 -44 -36 -60 -56 -27 -36 -29 -43 -36 -199 -5
-88 -7 -190 -6 -225 l3 -64 155 -23 c85 -13 177 -30 205 -38 l50 -15 37 36
c21 21 38 41 38 45 0 4 -29 8 -65 8 l-64 0 6 204 c6 217 3 245 -41 295 -46 52
-162 69 -222 32z"/>
<path d="M1525 4291 c-16 -10 -38 -27 -48 -38 -16 -19 -16 -24 -1 -84 13 -49
15 -94 12 -191 -3 -71 -2 -128 1 -128 3 -1 72 10 154 22 l147 23 0 144 c0 130
-2 147 -22 183 -45 80 -169 115 -243 69z"/>
<path d="M3501 4017 c-37 -75 -136 -209 -219 -299 l-62 -66 57 -20 c110 -39
342 -131 384 -152 l41 -22 94 43 c52 23 94 46 94 50 0 4 -52 40 -115 81 l-114
73 -1 121 c0 131 -10 172 -52 211 -12 12 -35 26 -49 32 -26 9 -28 7 -58 -52z"/>
<path d="M987 3578 c-77 -76 -80 -80 -18 -24 118 108 126 116 118 116 -3 0
-49 -42 -100 -92z"/>
<path d="M1652 3470 c-203 -37 -287 -83 -434 -238 -134 -143 -179 -272 -199
-575 -16 -241 -8 -397 25 -508 101 -341 242 -500 576 -650 71 -32 124 -47 216
-63 l120 -20 52 22 c28 12 64 22 80 22 44 0 96 -25 127 -62 l28 -33 166 -3
c117 -2 220 3 347 16 164 18 195 25 350 76 256 84 375 169 504 362 169 249
242 482 244 774 l1 155 -33 67 c-44 90 -191 230 -302 287 -141 74 -475 192
-790 281 -41 11 -163 32 -270 46 -107 13 -258 33 -335 44 -172 24 -335 24
-473 0z m1537 -346 c147 -36 331 -171 394 -290 53 -100 57 -336 7 -434 -85
-168 -223 -326 -363 -418 -185 -120 -477 -220 -670 -229 -105 -5 -139 -2 -327
27 -251 39 -635 166 -730 242 -16 13 -40 31 -54 40 -35 25 -115 133 -142 193
-32 69 -42 153 -33 265 11 144 24 198 70 285 154 297 278 354 673 309 166 -18
403 -15 631 11 178 19 463 19 544 -1z"/>
<path d="M1465 2800 c-53 -35 -65 -59 -65 -133 0 -64 2 -70 35 -104 32 -33 42
-37 97 -41 108 -8 168 46 168 152 0 56 -2 61 -44 102 -41 42 -46 44 -102 44
-42 0 -68 -6 -89 -20z"/>
<path d="M3070 2664 c-79 -67 -82 -172 -5 -244 23 -22 36 -25 100 -25 64 0 77
3 100 25 75 69 73 178 -5 244 -27 22 -41 26 -95 26 -54 0 -68 -4 -95 -26z"/>
<path d="M2413 2597 c-12 -6 -43 -25 -69 -41 -25 -15 -63 -30 -83 -33 -33 -5
-43 0 -85 36 -45 39 -51 41 -111 41 -54 0 -68 -4 -95 -26 -41 -35 -60 -74 -60
-124 0 -53 11 -73 74 -138 76 -79 132 -101 285 -112 147 -10 170 -4 260 73 83
71 111 120 111 191 0 56 -2 61 -44 102 -41 42 -46 44 -102 44 -33 0 -69 -6
-81 -13z"/>
<path d="M254 3431 c-18 -11 -45 -36 -60 -57 -39 -50 -41 -141 -6 -191 21 -30
24 -31 82 -26 67 6 112 -7 283 -83 53 -24 101 -44 106 -44 5 0 12 17 16 38 9
47 60 173 97 235 15 26 28 50 28 52 0 3 -13 5 -29 5 -75 0 -262 42 -338 76
-46 21 -141 18 -179 -5z"/>
<path d="M4548 3390 c-30 -22 -63 -32 -155 -50 -109 -20 -263 -70 -340 -109
l-31 -16 60 -70 c112 -131 166 -273 176 -463 l7 -124 33 -13 32 -14 0 109 c0
154 -18 303 -46 389 -14 40 -23 75 -22 76 2 1 53 17 113 35 161 50 203 80 226
164 10 37 4 117 -9 115 -4 0 -24 -13 -44 -29z"/>
<path d="M523 2653 c-4 -21 -7 -130 -6 -243 2 -199 12 -282 48 -372 7 -17 -4
-18 -134 -18 -182 0 -227 -19 -266 -113 -19 -47 -19 -86 1 -137 l16 -40 294 0
294 0 -22 53 c-45 110 -98 277 -119 378 -17 83 -22 136 -21 263 0 88 4 176 7
197 6 37 5 39 -30 54 -51 21 -53 20 -62 -22z"/>
<path d="M4206 2178 c-2 -7 -14 -51 -26 -98 -12 -47 -30 -105 -41 -129 -10
-24 -19 -47 -19 -51 0 -3 21 -22 48 -40 26 -18 97 -72 157 -120 148 -116 156
-120 215 -120 60 0 96 17 138 64 41 47 49 76 26 93 -43 29 -245 204 -329 284
-131 124 -161 145 -169 117z"/>
<path d="M1513 1067 c-78 -146 -91 -212 -56 -284 25 -53 94 -93 160 -93 93 0
138 39 209 184 30 60 54 117 54 127 0 21 -6 23 -135 45 -55 9 -126 24 -158 34
l-57 18 -17 -31z"/>
<path d="M2995 1004 c-33 -7 -79 -13 -102 -14 -50 0 -51 -3 -24 -89 36 -115
98 -171 190 -171 102 0 181 75 181 172 l0 45 -42 6 c-23 3 -61 19 -85 36 -24
17 -47 31 -51 30 -4 -1 -34 -7 -67 -15z"/>
</g>
</svg>
