<?xml version="1.0"?>
<svg xmlns="http://www.w3.org/2000/svg" viewBox="0 0 50 50">
    <path style="line-height:normal;text-indent:0;text-align:start;text-decoration-line:none;text-decoration-style:solid;text-decoration-color:#000;text-transform:none;block-progression:tb;isolation:auto;mix-blend-mode:normal" d="M 6 6 L 6 18 A 2.0002 2.0002 0 1 0 10 18 L 10 10 L 18 10 A 2.0002 2.0002 0 1 0 18 6 L 6 6 z M 32 6 A 2.0002 2.0002 0 0 0 31.859375 9.9980469 A 2.0002 2.0002 0 0 0 32 10 L 40 10 L 40 18 A 2.0002 2.0002 0 0 0 41.830078 20.021484 A 2.0002 2.0002 0 0 0 42.029297 20.027344 A 2.0002 2.0002 0 0 0 44 18 L 44 6 L 32 6 z M 7.9707031 30.972656 A 2.0002 2.0002 0 0 0 6 33 L 6 45 L 18 45 A 2.0002 2.0002 0 0 0 18.199219 44.992188 A 2.0002 2.0002 0 0 0 18 41 L 10 41 L 10 33 A 2.0002 2.0002 0 0 0 7.9707031 30.972656 z M 41.970703 30.972656 A 2.0002 2.0002 0 0 0 40 33 L 40 41 L 32 41 A 2.0002 2.0002 0 1 0 32 45 L 44 45 L 44 33 A 2.0002 2.0002 0 0 0 41.970703 30.972656 z"/>
</svg>
